<svg xmlns="http://www.w3.org/2000/svg" viewBox="0 0 169.1 193.59"><defs><style>.cls-1{fill:#fdbb0a;}.cls-2{fill:#1a1f71;}.cls-3{fill:#fff;}</style></defs><title>Asset 4</title><g id="Layer_2" data-name="Layer 2"><g id="Layer_1-2" data-name="Layer 1"><path class="cls-1" d="M169.1,138.38a37.28,37.28,0,0,1-10.61,26.41,3.08,3.08,0,1,1-4.42-4.25,31,31,0,0,0,5.37-36,31.16,31.16,0,0,0-5.41-7.44,3,3,0,0,1-.08-4.51,3.15,3.15,0,0,1,4.53.33,36.94,36.94,0,0,1,10.39,21.92c0,.22,0,.43,0,.65C169,136.52,169.05,137.56,169.1,138.38Z"/><path class="cls-1" d="M158.08,138.32a26.75,26.75,0,0,1-7.5,18.89,3,3,0,0,1-4.29.26,2.93,2.93,0,0,1,.16-4.35,20.49,20.49,0,0,0,.3-28.22c-.95-1-1.69-2.06-1.17-3.54a2.85,2.85,0,0,1,4.66-1.19,25.16,25.16,0,0,1,7.39,14.13C157.89,135.84,158,137.41,158.08,138.32Z"/><path class="cls-1" d="M147.7,138.87a15.73,15.73,0,0,1-4.4,11,2.89,2.89,0,1,1-4.2-3.94,10.16,10.16,0,0,0,0-14.24,2.88,2.88,0,0,1,0-4.2,2.83,2.83,0,0,1,4.18.21A15.42,15.42,0,0,1,147.7,138.87Z"/><path class="cls-2" d="M128.57,128.48c-.31,3.71-3.51,2.4-3.74,5.23-.18,2.34.79.83,2,4.17,1.34,3.66-6.07,4.88-6.54,8.86s-.15,10.86,2.21,15.8c3.5,7.34-5,13.2-8.48,14.45-9.66,3.5-26,.22-31.68,2.7-19.6,8.59-6.51,15.69-13.22,13.49A100,100,0,0,1,79.85.08C86.36-1.26,101,15.24,107,26.74c5.09,9.76,9,16.13,10,23.3.83,6.17-.59,18.39-.17,22,.76,6.52,14.63,16.37,20.17,24.84,2.77,4.23,6.18,9.47-8.33,15C121.67,114.54,129,123.38,128.57,128.48Z"/><circle class="cls-3" cx="94.23" cy="74.38" r="12.5"/><circle cx="98.18" cy="74.38" r="8.54"/><circle class="cls-3" cx="95.32" cy="72.12" r="3.95"/></g></g></svg>